<svg enable-background="new 0 0 3000 3000" version="1.1" viewBox="0 0 2707.4 2707.4" xmlns="http://www.w3.org/2000/svg"><style/><circle cx="1353.7" cy="1353.7" r="1329.2" fill="#fff" stroke="#4ec9a7" stroke-miterlimit="10" stroke-width="47"/><circle cx="1353.7" cy="1353.7" r="1177.2" fill="#4ec9a7"/><polygon transform="rotate(-27.239 1724.8 1464.5)" points="476.06 1538 403.26 1470.7 501.01 1453.9 542.57 1363.8 588.77 1451.6 687.26 1463.3 618.06 1534.3 637.37 1631.6 548.4 1587.8 461.85 1636.2" fill="#fcfcfc"/><polygon transform="rotate(27.821 1202.2 921.2)" points="2381.1 1538 2308.3 1470.7 2406 1453.9 2447.6 1363.8 2493.8 1451.6 2592.3 1463.3 2523.1 1534.3 2542.4 1631.6 2453.4 1587.8 2366.8 1636.2" fill="#fff"/><ellipse transform="rotate(207.87)" cx="-1840.4" cy="-530.64" rx="808.38" ry="825.07" fill="none"/><ellipse cx="1353.7" cy="1353.7" rx="806.94" ry="790.62" fill="none"/><ellipse cx="1353.7" cy="1353.7" rx="730.32" ry="715.55" fill="#fff"/><g id="a" transform="translate(-146.3 -146.3)" fill="#4ec9a7"><path d="m1179.1 1402.1"/><path d="m1888.2 1809.6"/><path d="m1972 1859.5"/><path d="m1865.6 1751.7c-9.045 7.019-15.819 18.893-23.21 27.721 83.086 4.847 15.354 64.485-24.328 65.571-0.183 5.086 5.785 6.646 10.203 9.589-7.223 4.85-16.05 10.323-20.844 16.782 4.17 9.111-7.204 63.607-26.676 52.65-30.38-17.095-48.832-36.674-81.286-23.017-21.469 9.035-25.978 42.657-52.822 46.954-40.783 6.528-46.081-13.475-73.697 21.257 12.269 16.003 7.861 23.448 13.039 36.277-21.859 6.905-39.497 39.469-64.817 34.172-2.691 5.327-1.311 10.024-4.71 15.222-28.979-16.267-24.06-34.143-56.082-49.394 28.025-29.134-22.248-71.947-45.247-83.938-10.14-5.287-29.048 7.302-42.785 3.938-21.313-5.219-15.647-34.246-45.668-21.82-6.539-34.117-54.745-82.178-83.633-83.051 23.032-16.108 47.849-29.717 73.469-41.239-8.682-15.747-21.532-30.224-36.394-41.273 4.962-0.592 9.924-1.185 14.886-1.777 30.023-27.428-26.518-108.32 30.414-138.88-20.685-16.191-130.85-53.831-58.16-68.676-28.755-20.046-19.666-47.6-36.82-73.043-16.669-24.724-28.634-28.674-62.375-36.617 11.85-15.991 16.396-19.574 38.969-13.707-0.6-8.288-1.125-9.432-2.668-15.422 6.96 4.202 14.768 6.329 21.609 10.047 2.05-31.169-18.979-42.361-18.215-72.949 0.729-29.207-6.04-94.651 27.051-70.602-19.719-21.868-20.224-41.228-22.035-64.601 29.505 13.953 42.7-12.898 70.824-12.903-2.191-21.58 0.656-27.604 21.281-25.5 14.398-24.246 40.27-65.129 21.364-82.945 33.633-11.835 37.087-18.365 44.058-52.074 5.162-24.963-23.112-65.95 18.157-72.196-8.41 16.752-8.641 33.893 2.57 46.473-8.597 5.814-5.727 3.028-5.121 14.945-1.19 0.706-11.319 0.082-13.789 0.629 1.284 7.104 1.888 17.918 1.406 24.477 5.45-2.368 11.788-4.912 17.301-6.496-19.064 25.344-11.533 50.643-3.285 78.488 11.048-16.454 18.69-14.524 36.32-22.27 7.051 44.037 25.849 2.081 43.07 10.718 18.648 9.352 9.675 19.243 28.754 27.638 20.245 8.909 24.96-9.913 49.77 7.961 7.774 5.601 14.115 38.088 14.972 42.644 71.599-0.15 70.266 31.164 5.598 58.067 19.859 16.805 11.291 29.857 34.996 33.976-0.014 5.427-4.167 8.818-0.363 14.555 27.479 9.188 64.201-13.302 74.832 25.176-25.138 7.386-48.265-5.453-59.563 8.969-22.529-16.943-45.763-13.072-44.777 8.25-31.507-10.977-62.094-1.745-93.035-16.329-17.087 41.379 68.996 71.757 80.828 111.48 15.682 52.644 23.261 124.9 51.945 171.42 34.257 55.568 87.997 57.978 141.7 80.326 44.949 18.704 66.379 66.06 113.02 84.351z"/></g><g transform="translate(-146.3 -146.3)" fill="none" stroke="#4ec9a7" stroke-miterlimit="10" stroke-width="22"><line x1="869" x2="1298" y1="1501" y2="1501"/><line x1="1712" x2="2141" y1="1500" y2="1500"/><line x1="1501.4" x2="1497.6" y1="1712.5" y2="2141.5"/><line x1="1500.8" x2="1498.2" y1="869.5" y2="1298.5"/><line x1="1050.7" x2="1352.3" y1="1058.4" y2="1363.6"/><line x1="1624.7" x2="1926.3" y1="1657.4" y2="1962.6"/><line x1="1389.1" x2="1083.9" y1="1659.2" y2="1960.8"/><line x1="1943.1" x2="1637.9" y1="1060.2" y2="1361.8"/></g><path d="m1151.7 1975.8"/><g transform="translate(-146.3 -146.3)" fill="none" stroke="#4ec9a7" stroke-miterlimit="10" stroke-width="22"><circle cx="1500" cy="1500" r="201.92"/><circle cx="1500" cy="1500" r="348.01"/><circle cx="1500" cy="1500" r="500.71"/><circle cx="1500" cy="1500" r="630.81"/></g><ellipse transform="rotate(159.41)" cx="-746.38" cy="-4342.9" rx="839.23" ry="822.26" display="none" fill="#959595" fill-opacity=".55914" stroke-width="1.1491"/><g transform="translate(-1017.4 -2609.2)" fill="#fff" stroke-width="1px" style="font-variant-caps:normal;font-variant-east-asian:normal;font-variant-ligatures:normal;font-variant-numeric:normal;white-space:pre" aria-label="FLAT EARTH SOCIETY"><path d="m1549.8 4245.5-11.156-19.778-111.44 28q-7.5649 1.9008-9.6001 3.6495-2.3262 1.8217-3.12 7.2797l-4.7823 16.668-26.405 5.7068-39.698-157.99q30.039-9.7131 59.134-17.024l6.8647 21.165-20.413 27.091 9.8755 44.227 51.79-13.013-21.1-60.584 44.807-11.259 8.88 63.655 30.259-7.6032q6.983-1.7546 8.8003-3.1392 1.7443-1.6756 2.6844-6.5517l6.0879-20.089 23.787-5.0489 24.052 95.724z" style="shape-inside:url(#rect9645)"/><path d="m1505.6 4060.9-5.5526-18.772-114.87 2.7608q-7.7977 0.1874-10.168 1.4448-2.6776 0.9646-4.6616 5.8137l-6.8952 12.769-28.513-0.2149-2.249-93.573 30.555-2.2348 6.5317 22.049 129.56-3.114-1.808-37.768-29.704-24.793 0.6446-23.122q25.207-0.01 64.882 2.6418l3.6979 153.86z" style="shape-inside:url(#rect9645)"/><path d="m1507.6 3881-3.7884-10.229-153.26-101.85 5.4753-50.904 170.56-27.446q8.2337-1.4305 10.821-2.1423 2.5871-0.7118 7.3473-3.1347l7.8162-3.9595 20.547 5.8963-16.347 82.7-28.541-2.5836-1.167-21.943-31.586 3.5421-10.927 59.918 17.261 10.14q2.4742 1.4065 4.2401 1.7555 2.0601 0.4072 3.3537 0.051 1.0574-0.7084 1.9951-2.3578l12.549-18.62 25.317 8.0625-15.242 77.108zm-107.53-121.25 52.667 30.594 9.2704-37.616z" style="shape-inside:url(#rect9645)"/><path d="m1561.7 3653.4 4.2755-26.735-118.2-53.885-8.5426 23.801 15.086 31.276-10.722 19.18q-22.657-10.329-56.055-28.193l77.903-170.88q35.39 13.496 58.047 23.825l-7.3222 20.401-33.628 9.3972-12.115 21.513 107.28 48.907q6.5513 2.9867 8.8354 3.0389 2.2841 0.052 5.9372-2.8983l17.816-12.32 21.34 11.048-42.56 93.356z" style="shape-inside:url(#rect9645)"/><path d="m1669.8 3449.2 10.219-20.278-85.298-76.982q-5.7905-5.2259-8.3762-5.943-2.8084-0.9181-7.7843 1.461l-16.508 5.3066-19.441-18.758 109.14-120.93q24.792 19.546 47.063 39.645l-13.76 17.486-33.869-1.8752-31.241 32.825 36.302 32.762 38.804-51.055 34.298 30.953-47.935 42.815 35.857 32.36 32.697-37.573-4.1219-34.836 15.987-15.476q22.581 21.996 42.641 44.545l-110.95 122.94z" style="shape-inside:url(#rect9645)"/><path d="m1800.9 3310.7 4.4301-9.9676-38.596-179.92 39.463-32.618 141.26 99.442q6.893 4.725 9.2421 6.0219 2.3491 1.2968 7.4485 2.8861l8.36 2.623 10.592 18.567-69.446 47.788-18.628-21.778 14.486-16.523-25.085-19.519-49.659 35.264 5.277 19.311q0.7891 2.7344 1.8095 4.2172 1.1905 1.73 2.365 2.3785 1.2516 0.2312 3.0746-0.2949l21.984-4.5674 12.494 23.449-64.751 44.557zm7.6869-161.88 16.341 58.675 32.901-20.455z" style="shape-inside:url(#rect9645)"/><path d="m1986.3 3183.6 18.348-13.378-40.542-106.87q-2.7666-7.2929-4.7398-9.1112-2.0797-2.0988-7.593-2.2533l-17.672-2.6011-7.0426-23.639q39.733-22.132 78.722-36.923 30.293-11.492 51.147-12.344 20.747-1.1326 34.057 8.5779 13.484 9.3235 21.464 30.361 6.5973 17.391 2.6227 33.979-4.081 16.308-17.97 29.598l72.333 55.342 3.8694 11.046-51.05 19.366-69.924-59.143-12.448 4.4015 11.918 31.415q2.5538 6.7318 4.1402 8.3761 1.7604 1.2573 6.5386 2.0115l14.722 2.4368 8.0292 24.548-86.673 32.88zm59.616-111.82q14.866-5.6397 20.814-11.105-1.0258-11.162-6.3463-25.187-5.3204-14.025-13.726-17.574-8.125-3.6558-22.15 1.6647-7.8538 2.9794-15.669 6.9068l19.047 50.208q7.9313-1.0837 18.029-4.9144z" style="shape-inside:url(#rect9645)"/><path d="m2222.2 3108.8 25.019-10.348-15.94-128.92-24.752 5.1763-18.756 29.222-21.955 0.9009q-3.0554-24.712-5.3119-62.521l186.38-23.044q7.0202 37.22 10.076 61.932l-21.216 4.4368-25.606-23.737-24.672 0.9345 14.467 117.01q0.8835 7.1456 2.0343 9.1193 1.1509 1.9737 5.5769 3.5425l19.822 8.7337 1.754 23.966-101.82 12.59z" style="shape-inside:url(#rect9645)"/><path d="m2396.3 3087.2 19.416-2.4995 15.525-113.85q1.054-7.7284 0.1893-10.269-0.5269-2.7968-4.9992-5.5261l-11.512-8.8365 4.7427-28.117 92.742 12.647-2.6484 30.522-22.807 2.9453-5.9183 43.398 68.016 7.4587 3.7699-27.644q1.0539-7.7285 0.1892-10.269-0.8242-2.8374-5.5936-5.6073l-13.43-10.309 5.175-26.847 91.255 12.445-3.0673 31.373-18.821 2.5805-15.809 115.93q-0.9728 7.134-0.3648 9.3364 0.9052 2.2428 4.7829 4.8911l11.214 8.7959-4.9589 27.482-90.364-12.323 2.689-30.819 21.578-2.8102 6.0398-44.29-67.367-12.215-4.8238 35.373q-0.9729 7.1339-0.3649 9.3363 0.9053 2.2429 5.0802 4.9317l14.498 11.363-4.6751 25.401-92.147-12.566z" style="shape-inside:url(#rect9645)"/><path d="m2736.9 3206.6q-29.733-14.315-55.853-38.211 14.235-26.109 28.27-47.654l22.765 5.9661 2.4535 29.483q13.485 13.485 25.919 19.471 4.3248 2.0822 19.552 6.4167 3.1433-5.1458 4.0543-7.0379 3.1233-6.4873 2.5225-10.772-0.4706-4.555-5.8167-12.123-5.216-7.8386-20.103-25.328-17.78-22.545-21.805-40.464-3.8948-18.19 4.6943-36.03 13.404-27.841 39.874-34.409 26.469-6.568 59.446 9.3089 15.948 7.6781 30.064 18.47 14.516 10.652 23.807 21.784-7.8283 14.877-20.522 36.401l-6.4069 11.233-21.164-6.5267-7.9196-36.11q-8.2994-7.6583-22.896-14.686-9.1904-4.4247-14.566-5.0153-3.9542 4.7554-5.3858 7.7288-2.863 5.9466-2.102 11.973 0.8911 5.7564 6.1171 14.266 5.3562 8.2391 16.839 22.425 16.679 20.683 23.988 33.857 7.3084 13.174 7.4689 23.906 0.5609 10.592-5.2954 22.755-12.884 26.76-41.656 31.886t-66.344-12.963z" style="shape-inside:url(#rect9645)"/><path d="m2906.8 3313.5q-38.444-31.656-41.415-66.747-2.7398-34.9 29.87-74.502 21.168-25.706 46.11-36.646 25.132-11.172 51.124-6.8681 25.992 4.3033 50.308 24.327 77.35 63.694 12.322 142.67-21.358 25.938-46.3 36.878t-51.206 6.0236q-26.032-4.7257-50.812-25.131zm31.18-27.954q13.2 10.87 30.773 14.07 8.4592-5.0816 18.621-14.59 10.352-9.7404 18.934-20.162 21.168-25.706 22.311-46.916 1.3748-21.019-17.152-36.275-13.2-10.87-29.48-16.114-6.1707 2.3024-15.951 11.348-9.5897 8.8141-20.269 21.783-22.121 26.864-24.218 49.232t16.43 37.624z" style="shape-inside:url(#rect9645)"/><path d="m3056.1 3472.9q-26.702-36.964-18.492-73.243 8.2108-36.279 49.552-66.144 26.264-18.973 52.084-23.191 26.238-4.1509 49.385 6.8852 23.389 10.86 41.484 35.908 20.554 28.452 29.449 67.918-23.468 13.622-53.488 27.907l-14.567-17.604 12.44-34.523q-4.5683-12.984-13.879-25.873-7.027-9.7273-15.054-17.252-10.35 1.555-24.509 8.0826-14.159 6.5275-26.805 15.663-26.993 19.5-33.098 38.714-5.6861 19.281 9.2869 41.033 6.1487 8.5114 17.891 19.643 12.161 11.2 25.255 20.615l-21.304 26.863q-17.403-6.6726-35.753-20.803-17.931-14.063-29.877-30.6z" style="shape-inside:url(#rect9645)"/><path d="m3141.7 3541.8 14.653 17.346 104.25-48.318q7.0768-3.28 8.7497-5.378 1.945-2.2242 1.7056-7.7344l1.6054-17.938 24.855-9.8671 40.496 87.371-27.258 13.957-14.527-17.074-106.15 49.201q-6.5325 3.0278-8.0593 4.7274-1.4007 1.9719-1.4136 6.9377l-2.0037 17.792-23.786 10.033-40.244-86.827z" style="shape-inside:url(#rect9645)"/><path d="m3193.8 3651.3 11.151 19.781 111.44-27.971q7.5654-1.8988 9.601-3.6469 2.3267-1.8212 3.122-7.279l4.7867-16.667 26.407-5.6999 39.656 158q-30.041 9.705-59.139 17.008l-6.8592-21.167 20.421-27.086-9.8637-44.229-47.429 11.904 20.793 60.663-44.81 11.247-8.8631-63.657-46.847 11.758 12.996 48.083 31.229 15.978 3.9494 21.897q-30.844 6.5043-60.745 10.607l-40.313-160.62z" style="shape-inside:url(#rect9645)"/><path d="m3238.6 3884.6 7.2181 26.095 129.9-0.09-2.1175-25.198-26.716-22.181 1.7847-21.901q24.9-0.017 62.702 2.3563l0.1308 187.8q-37.798 2.4264-62.698 2.4437l-1.815-21.599 26.684-22.519 2.0828-24.602-117.9 0.082q-7.2 0.01-9.2994 0.9065-2.0994 0.9015-4.1964 5.1029l-11.087 18.608-24.001-1.1833-0.072-102.6z" style="shape-inside:url(#rect9645)"/><path d="m3225.1 4097.5 0.5573 26.78 38.356 9.8485 98.792-31.314 19.995-9.1136 20.042 6.3849-21.861 85.138-28.351-4.1822-0.3807-20.23-59.556 17.23 36.223 36.248q1.7355 1.6846 3.7696 2.2069 3.1963 0.8207 5.5445-2.2932l11.882-14.913 25.048 8.5997-18.802 73.225-27.836-4.9793-3.9894-13.414-64.727-73.61-36.031-9.2516q-6.9738-1.7906-9.2316-1.4412-2.3325 0.6401-5.4111 4.1858l-15.377 15.255-22.948-7.1311 25.442-99.086z" style="shape-inside:url(#rect9645)"/></g><ellipse transform="matrix(-.42032 .90738 .92125 .38896 0 0)" cx="3926.9" cy="544.3" rx="1090.7" ry="1103.6" display="none" fill="#b575b4" fill-opacity=".55914" stroke-width="1.5177"/><g transform="translate(2372.5,-2603.7)" fill="#fff" stroke-width="1px" style="font-variant-caps:normal;font-variant-east-asian:normal;font-variant-ligatures:normal;font-variant-numeric:normal;font-variant-position:normal;white-space:pre" aria-label="LINZ"><path d="m-1444.8 4886.8 19.543 1.1341 36.31-109.01q2.465-7.4003 2.0849-10.056-6e-4 -2.8461-3.891-6.3553l-9.679-10.813 9.8604-26.755 88.803 29.579-8.247 29.506-22.958-1.3231-40.956 122.96 36.147 11.092 33.389-19.55 21.537 8.4384q-8.5328 23.719-24.463 60.152l-146.01-48.635z"/><path d="m-1208.7 4954.2 22.484-3.1782 14.551-113.97q0.9879-7.7372 0.1015-10.27-0.8484-2.8303-5.6414-5.5592l-14.335-10.903 4.8693-26.295 95.525 12.196-2.6849 30.506-22.186 3.2162-14.817 116.06q-0.9118 7.1421-0.285 9.3391 0.9244 2.2351 5.1222 4.8881l13.999 11.163-4.1601 25.478-94.93-12.12z"/><path d="m-980.79 4872.6 11.741 77.885q0.88355 6.8498 2.2572 8.8406t5.7619 4.0263l16.434 9.1405 0.93948 25.211-77.719 6.6088-4.2653-32.455 15.811-5.2586-8.8192-117.88q-0.4829-5.6795-1.5576-7.6957t-4.5916-4.4269l-11.772-7.4293-0.1444-26.483 61.877-5.2616 100.11 108.01-9.8532-66.304q-0.90896-7.1487-2.2826-9.1394-1.3736-1.9908-5.7619-4.0263l-16.408-8.8416-1.2384-25.186 77.122-6.558 3.7884 30.388-14.686 7.8726 12.556 161.82-33.41 14.282z"/><path d="m-740.81 4931 48.835-148.6-39.105 16.403-14.177 32.036-23.892 3.3359-12.911-63.408 142.65-48.284 13.806 31.433-50.431 152.31 53.689-21.973 11.331-32.023 25.697-2.6802q9.4042 43.691 13.007 63.692l-154.59 52.323z"/></g></svg>
